<?xml version="1.0" standalone="no"?>
<!DOCTYPE svg PUBLIC "-//W3C//DTD SVG 20010904//EN"
 "http://www.w3.org/TR/2001/REC-SVG-20010904/DTD/svg10.dtd">
<svg version="1.0" xmlns="http://www.w3.org/2000/svg"
 width="1440.000000pt" height="1440.000000pt" viewBox="0 0 1440.000000 1440.000000"
 preserveAspectRatio="xMidYMid meet">

<g transform="translate(0.000000,1440.000000) scale(0.100000,-0.100000)"
fill="#000000" stroke="none">
<path d="M7126 9359 c-26 -20 -37 -69 -16 -69 6 0 3 -11 -6 -25 -15 -23 -15
-27 10 -70 15 -25 34 -45 44 -45 12 -1 9 -5 -9 -15 -15 -8 -34 -31 -44 -51
-14 -31 -15 -43 -6 -75 10 -33 9 -43 -10 -79 -25 -47 -21 -98 9 -140 l19 -26
-76 -153 -77 -153 -82 -2 -82 -1 -101 101 -101 101 21 34 c41 66 19 178 -44
227 -90 71 -225 41 -274 -60 -48 -100 -9 -201 94 -249 49 -23 84 -24 132 -4
l36 15 104 -102 c85 -84 103 -107 97 -123 -4 -11 -8 -44 -8 -72 l-1 -53 -143
-66 -143 -67 -22 21 c-89 84 -243 64 -313 -40 -57 -84 -53 -178 9 -254 33 -39
116 -84 157 -84 42 0 98 20 129 45 16 14 33 25 39 25 6 0 48 -22 94 -48 45
-27 104 -61 129 -75 l47 -27 -14 -41 c-10 -29 -12 -50 -5 -74 9 -32 6 -35 -79
-120 -81 -81 -89 -86 -110 -75 -35 19 -114 15 -151 -6 -89 -52 -122 -151 -79
-239 55 -113 194 -138 288 -51 58 52 71 144 32 215 l-23 39 82 85 82 84 47 -4
c59 -5 83 8 59 32 -41 40 -25 44 186 37 l177 -5 0 -113 0 -112 -34 -12 c-76
-25 -146 -128 -146 -215 0 -41 29 -125 45 -131 8 -3 10 -21 7 -53 -4 -45 -1
-52 31 -87 34 -38 38 -39 102 -39 63 0 68 2 96 33 16 18 29 38 30 45 0 6 21
26 47 43 90 59 127 183 83 280 -25 54 -85 111 -133 126 l-38 11 0 114 0 113
69 0 c38 0 76 3 85 6 11 4 16 1 16 -11 0 -9 14 -30 30 -47 28 -28 35 -30 85
-26 l54 5 77 -78 78 -78 -23 -50 c-53 -112 7 -235 125 -257 169 -32 283 175
166 299 -15 16 -39 35 -54 43 -32 17 -121 19 -150 3 -18 -10 -30 -2 -101 69
-77 77 -80 82 -69 107 17 36 15 65 -7 108 -10 20 -14 37 -9 37 5 0 64 32 130
72 100 60 123 70 136 60 35 -25 118 -62 141 -62 75 0 169 62 202 134 62 136
-41 296 -190 296 -55 0 -89 -12 -139 -49 l-33 -24 -143 69 -143 69 5 46 c2 25
0 55 -6 66 -10 17 3 33 96 126 l107 107 44 -17 c36 -14 49 -15 88 -5 99 27
148 94 141 193 -13 182 -258 230 -337 67 -26 -55 -27 -107 -1 -160 l20 -41
-40 -43 c-22 -24 -66 -70 -97 -101 l-57 -58 -79 0 -80 0 -78 157 c-59 119 -75
159 -65 165 20 12 46 69 46 101 0 16 -10 45 -23 63 -22 32 -22 37 -9 69 12 29
13 47 3 105 -6 38 -18 80 -26 92 l-15 22 -42 -19 c-59 -27 -86 -25 -100 5 -9
19 -8 29 5 49 20 30 85 44 116 24 26 -16 46 1 36 32 -17 55 -128 79 -179 39z
m149 -219 c14 -7 8 -8 -20 -3 -22 3 -42 7 -44 9 -9 8 45 2 64 -6z m62 -563
c79 -156 81 -159 66 -189 -11 -21 -14 -45 -9 -81 6 -51 5 -52 -41 -99 l-46
-47 -31 16 c-41 21 -107 19 -146 -4 l-32 -18 -48 55 c-37 42 -46 59 -39 72 12
23 11 82 -2 111 -9 21 0 44 69 183 l80 160 49 0 49 0 81 -159z m-511 -362 c35
-18 74 -19 109 -3 24 11 29 8 79 -41 l53 -53 -14 -48 c-12 -41 -12 -53 1 -90
l15 -43 -87 -89 c-48 -50 -87 -95 -86 -102 1 -8 -19 -11 -60 -11 -58 1 -68 5
-191 78 -72 42 -134 78 -139 80 -5 2 -4 17 2 37 15 41 15 100 2 135 -9 23 -7
28 18 41 34 19 255 122 263 123 4 1 20 -6 35 -14z m942 -52 l143 -68 -8 -30
c-10 -39 -10 -102 0 -141 8 -31 8 -31 -100 -94 -59 -34 -117 -70 -128 -80 -16
-15 -31 -17 -80 -11 l-60 6 -97 100 c-91 94 -96 101 -81 120 14 20 14 81 -2
145 -6 22 1 32 45 69 46 39 54 42 76 32 34 -15 84 -13 114 4 14 8 27 14 30 15
3 0 69 -30 148 -67z m-558 -293 c23 0 54 7 68 16 27 15 27 15 122 -80 l95 -95
45 4 c34 3 41 2 28 -6 -10 -5 -33 -30 -53 -56 -26 -34 -36 -41 -40 -29 -3 9
-7 23 -10 31 -4 13 -43 15 -275 15 -181 0 -270 -3 -270 -10 0 -17 -47 -60 -66
-60 -14 0 -15 7 -9 46 10 67 14 76 37 68 26 -8 57 14 147 108 l78 80 31 -16
c17 -9 50 -16 72 -16z"/>
<path d="M5894 8100 c-55 -22 -73 -109 -31 -148 32 -30 69 -36 106 -18 69 36
70 125 1 161 -32 17 -45 18 -76 5z"/>
<path d="M8454 8100 c-32 -13 -54 -50 -54 -91 0 -52 48 -93 99 -85 90 14 111
130 31 171 -32 17 -45 18 -76 5z"/>
<path d="M4593 6338 c-52 -7 -73 -14 -73 -24 0 -8 10 -14 24 -14 15 0 33 -11
45 -26 21 -26 21 -37 21 -465 0 -426 -1 -440 -20 -459 -11 -11 -32 -20 -46
-20 -16 0 -24 -5 -22 -12 3 -10 43 -14 141 -16 117 -2 137 0 137 13 0 8 -9 15
-21 15 -11 0 -29 5 -40 10 -18 10 -19 27 -19 510 l0 500 -27 -1 c-16 -1 -61
-6 -100 -11z"/>
<path d="M4020 6260 c-105 -22 -229 -120 -281 -222 -31 -60 -59 -183 -59 -257
1 -268 151 -462 379 -490 158 -20 281 33 370 158 20 28 21 32 5 38 -10 4 -20
0 -26 -10 -16 -29 -81 -88 -127 -115 -61 -36 -178 -43 -242 -15 -157 70 -247
282 -218 513 29 231 144 370 306 370 133 0 216 -71 253 -217 7 -26 17 -43 25
-43 12 0 15 23 15 135 0 74 -3 135 -7 135 -4 0 -16 -9 -27 -19 -21 -19 -22
-18 -96 12 -82 33 -188 44 -270 27z"/>
<path d="M7645 6238 c-18 -53 -253 -692 -281 -763 -45 -114 -57 -133 -91 -137
-17 -2 -29 -10 -31 -20 -3 -16 8 -18 117 -18 96 0 121 3 121 14 0 8 -16 16
-40 20 -64 10 -65 35 -8 199 l31 87 177 0 178 0 37 -104 c20 -57 38 -119 38
-137 2 -32 0 -35 -41 -43 -81 -19 -40 -31 111 -34 127 -2 147 0 147 13 0 9
-12 18 -30 21 -16 4 -34 12 -40 19 -6 7 -47 111 -91 231 -44 121 -112 305
-151 409 -39 105 -75 205 -81 223 -8 26 -16 32 -39 32 -16 0 -31 -6 -33 -12z
m80 -362 c41 -114 75 -212 75 -217 0 -5 -72 -9 -160 -9 -88 0 -160 4 -160 8 0
5 30 91 66 193 37 101 71 199 76 218 6 19 13 30 18 25 5 -5 43 -103 85 -218z"/>
<path d="M8160 6241 c0 -5 12 -12 27 -16 55 -13 53 4 53 -451 0 -408 -1 -424
-19 -434 -11 -5 -29 -10 -41 -10 -13 0 -20 -5 -17 -12 3 -10 40 -13 142 -13
102 0 139 3 143 13 2 7 -6 12 -23 12 -14 0 -35 5 -46 10 -18 10 -19 26 -19
434 0 327 3 426 13 434 6 5 27 13 45 17 71 15 26 25 -113 25 -80 0 -145 -4
-145 -9z"/>
<path d="M8945 6233 c-4 -10 -44 -119 -90 -243 -135 -368 -224 -593 -244 -620
-10 -14 -32 -29 -50 -34 -63 -18 -27 -31 97 -34 104 -2 122 0 122 13 0 10 -10
15 -28 15 -39 0 -64 21 -64 53 0 15 16 75 37 132 l37 105 182 -2 181 -3 27
-77 c54 -154 59 -176 42 -193 -9 -8 -29 -15 -45 -15 -19 0 -29 -5 -29 -15 0
-13 23 -15 150 -15 123 0 150 3 150 14 0 8 -14 17 -31 21 -18 4 -37 18 -47 35
-9 15 -89 219 -176 454 -156 418 -160 426 -187 426 -16 0 -30 -7 -34 -17z m91
-377 c39 -105 69 -195 67 -199 -7 -12 -323 -7 -323 6 0 13 139 395 153 422 10
19 12 18 21 -9 6 -16 43 -115 82 -220z"/>
<path d="M7041 6136 c-8 -10 -32 -26 -53 -37 -37 -19 -38 -21 -38 -74 0 -60 1
-59 -82 -58 -11 0 -18 -8 -18 -19 0 -15 8 -18 50 -18 l50 0 0 -265 c0 -209 3
-273 14 -300 32 -76 144 -100 224 -48 40 26 58 50 47 61 -3 3 -14 -3 -24 -12
-11 -10 -37 -20 -59 -23 -34 -5 -45 -1 -66 20 l-26 26 0 271 0 271 90 -3 c87
-3 90 -2 90 19 0 21 -3 22 -87 20 l-88 -2 -5 94 c-4 84 -7 92 -19 77z"/>
<path d="M9789 5975 c-25 -8 -66 -33 -91 -55 -25 -21 -48 -37 -51 -34 -3 3 -3
20 -1 37 8 54 -1 58 -99 44 -58 -7 -87 -16 -87 -24 0 -7 8 -13 18 -13 10 0 28
-7 40 -16 l22 -15 0 -408 c0 -435 0 -436 -49 -443 -14 -2 -26 -9 -29 -15 -3
-10 29 -13 138 -13 107 0 141 3 138 12 -3 7 -19 16 -38 19 -18 4 -36 13 -41
21 -5 7 -9 78 -9 157 l0 143 35 -31 c44 -38 104 -55 176 -48 212 19 335 277
247 516 -50 134 -190 207 -319 166z m126 -80 c22 -16 48 -51 64 -84 24 -51 26
-67 26 -181 0 -122 -1 -127 -33 -193 -40 -82 -75 -107 -145 -107 -73 0 -124
34 -161 107 -13 26 -16 66 -16 215 l0 184 38 36 c48 48 76 59 139 55 38 -3 61
-11 88 -32z"/>
<path d="M10570 5981 c-47 -15 -95 -44 -122 -74 l-28 -29 0 51 c0 59 3 58
-115 37 -72 -12 -85 -26 -38 -38 14 -4 30 -13 34 -20 5 -7 9 -198 9 -424 0
-437 1 -428 -48 -436 -12 -1 -23 -7 -22 -13 0 -6 52 -10 135 -10 83 0 135 4
135 10 0 6 -12 12 -27 13 -58 7 -63 21 -63 179 l0 144 38 -29 c134 -105 328
-43 408 130 27 58 29 72 29 183 0 101 -3 127 -21 166 -27 59 -78 115 -124 139
-42 21 -143 33 -180 21z m87 -70 c83 -38 129 -154 120 -305 -10 -178 -76 -276
-187 -276 -47 0 -73 11 -113 49 -54 49 -57 65 -57 267 0 183 1 188 24 219 49
64 133 82 213 46z"/>
<path d="M5076 5964 c-36 -11 -65 -31 -107 -73 -49 -49 -61 -69 -80 -131 -18
-59 -21 -88 -16 -158 12 -204 143 -323 342 -310 122 8 209 70 264 188 23 48
26 68 26 160 0 95 -3 111 -29 168 -36 78 -99 136 -169 157 -64 19 -167 18
-231 -1z m177 -28 c44 -18 81 -64 108 -133 28 -75 31 -239 6 -325 -49 -165
-216 -212 -306 -87 -111 152 -82 472 49 541 41 21 98 23 143 4z"/>
<path d="M5733 5955 c-58 -29 -77 -54 -95 -119 -26 -99 22 -163 180 -239 126
-60 162 -93 162 -148 0 -80 -51 -129 -135 -129 -81 0 -151 61 -182 158 -9 28
-23 52 -30 52 -10 0 -13 -27 -13 -117 0 -115 0 -116 20 -98 18 17 21 17 62 0
66 -26 197 -32 253 -10 55 20 100 57 120 96 21 40 19 113 -5 159 -24 47 -57
70 -200 142 -91 46 -108 58 -124 91 -16 33 -17 45 -7 76 16 54 42 74 104 79
74 6 112 -22 157 -115 19 -39 39 -71 43 -70 5 2 8 6 8 10 -1 4 -1 50 -1 102 0
75 -3 95 -14 95 -8 0 -16 -5 -18 -12 -3 -9 -18 -8 -57 5 -80 26 -166 22 -228
-8z"/>
<path d="M6375 5957 c-125 -59 -200 -231 -176 -401 15 -108 68 -188 155 -234
44 -23 63 -27 141 -27 73 0 98 4 130 22 42 22 125 104 125 123 0 18 -25 10
-50 -17 -38 -40 -97 -63 -163 -63 -132 0 -212 92 -219 253 l-3 58 217 -1 c119
0 219 3 222 8 11 18 -14 128 -41 182 -42 81 -100 114 -207 118 -68 2 -89 -1
-131 -21z m176 -24 c39 -23 70 -89 76 -163 l6 -60 -158 0 -158 0 6 46 c7 67
55 153 97 175 43 24 93 24 131 2z"/>
</g>
</svg>
